<mxfile host="app.diagrams.net" modified="2021-02-06T09:00:20.085Z" agent="5.0 (Windows)" etag="BG9Fz6F4VkZ9KhaSBxTl" version="14.2.9" type="github">
  <diagram id="lIqVl9bQdAMXFtmY_817" name="Page-1">
    <mxGraphModel dx="1038" dy="519" grid="1" gridSize="10" guides="1" tooltips="1" connect="1" arrows="1" fold="1" page="1" pageScale="1" pageWidth="827" pageHeight="1169" math="0" shadow="0">
      <root>
        <mxCell id="0" />
        <mxCell id="1" parent="0" />
        <mxCell id="IydracHSc55H5AG2ePdD-2" value="" style="edgeStyle=orthogonalEdgeStyle;rounded=0;orthogonalLoop=1;jettySize=auto;html=1;" edge="1" parent="1" source="IydracHSc55H5AG2ePdD-3" target="IydracHSc55H5AG2ePdD-5">
          <mxGeometry relative="1" as="geometry" />
        </mxCell>
        <mxCell id="IydracHSc55H5AG2ePdD-3" value="" style="ellipse;whiteSpace=wrap;html=1;aspect=fixed;strokeColor=#000000;fillColor=#000000;" vertex="1" parent="1">
          <mxGeometry x="180" y="40" width="40" height="40" as="geometry" />
        </mxCell>
        <mxCell id="IydracHSc55H5AG2ePdD-4" value="" style="edgeStyle=orthogonalEdgeStyle;rounded=0;orthogonalLoop=1;jettySize=auto;html=1;" edge="1" parent="1" source="IydracHSc55H5AG2ePdD-5" target="IydracHSc55H5AG2ePdD-16">
          <mxGeometry relative="1" as="geometry" />
        </mxCell>
        <mxCell id="IydracHSc55H5AG2ePdD-5" value="" style="ellipse;whiteSpace=wrap;html=1;fillColor=#FFFFFF;" vertex="1" parent="1">
          <mxGeometry x="150" y="100" width="100" height="40" as="geometry" />
        </mxCell>
        <mxCell id="IydracHSc55H5AG2ePdD-6" value="Ввести строку n" style="text;html=1;strokeColor=none;fillColor=none;align=center;verticalAlign=middle;whiteSpace=wrap;rounded=0;" vertex="1" parent="1">
          <mxGeometry x="155" y="110" width="90" height="20" as="geometry" />
        </mxCell>
        <mxCell id="IydracHSc55H5AG2ePdD-8" value="" style="edgeStyle=orthogonalEdgeStyle;rounded=0;orthogonalLoop=1;jettySize=auto;html=1;" edge="1" parent="1" source="IydracHSc55H5AG2ePdD-9" target="IydracHSc55H5AG2ePdD-12">
          <mxGeometry relative="1" as="geometry" />
        </mxCell>
        <mxCell id="IydracHSc55H5AG2ePdD-27" value="" style="edgeStyle=orthogonalEdgeStyle;rounded=0;orthogonalLoop=1;jettySize=auto;html=1;" edge="1" parent="1" source="IydracHSc55H5AG2ePdD-9" target="IydracHSc55H5AG2ePdD-24">
          <mxGeometry relative="1" as="geometry" />
        </mxCell>
        <mxCell id="IydracHSc55H5AG2ePdD-9" value="" style="rhombus;whiteSpace=wrap;html=1;strokeColor=#000000;fillColor=#FFFFFF;" vertex="1" parent="1">
          <mxGeometry x="175" y="260" width="50" height="40" as="geometry" />
        </mxCell>
        <mxCell id="IydracHSc55H5AG2ePdD-10" value="" style="ellipse;whiteSpace=wrap;html=1;fillColor=#FFFFFF;" vertex="1" parent="1">
          <mxGeometry x="147.5" y="440" width="100" height="40" as="geometry" />
        </mxCell>
        <mxCell id="IydracHSc55H5AG2ePdD-11" value="" style="edgeStyle=orthogonalEdgeStyle;rounded=0;orthogonalLoop=1;jettySize=auto;html=1;" edge="1" parent="1" source="IydracHSc55H5AG2ePdD-12" target="IydracHSc55H5AG2ePdD-13">
          <mxGeometry relative="1" as="geometry" />
        </mxCell>
        <mxCell id="IydracHSc55H5AG2ePdD-12" value="" style="ellipse;whiteSpace=wrap;html=1;fillColor=#FFFFFF;" vertex="1" parent="1">
          <mxGeometry x="277.5" y="440" width="90" height="40" as="geometry" />
        </mxCell>
        <mxCell id="IydracHSc55H5AG2ePdD-13" value="" style="ellipse;whiteSpace=wrap;html=1;aspect=fixed;strokeColor=#000000;fillColor=#000000;" vertex="1" parent="1">
          <mxGeometry x="287.5" y="520" width="40" height="40" as="geometry" />
        </mxCell>
        <mxCell id="IydracHSc55H5AG2ePdD-14" value="Вывести n.count" style="text;html=1;strokeColor=none;fillColor=none;align=center;verticalAlign=middle;whiteSpace=wrap;rounded=0;" vertex="1" parent="1">
          <mxGeometry x="155" y="450" width="90" height="20" as="geometry" />
        </mxCell>
        <mxCell id="IydracHSc55H5AG2ePdD-15" value="" style="edgeStyle=orthogonalEdgeStyle;rounded=0;orthogonalLoop=1;jettySize=auto;html=1;" edge="1" parent="1" source="IydracHSc55H5AG2ePdD-16" target="IydracHSc55H5AG2ePdD-9">
          <mxGeometry relative="1" as="geometry" />
        </mxCell>
        <mxCell id="IydracHSc55H5AG2ePdD-16" value="" style="ellipse;whiteSpace=wrap;html=1;fillColor=#FFFFFF;" vertex="1" parent="1">
          <mxGeometry x="147.5" y="180" width="105" height="50" as="geometry" />
        </mxCell>
        <mxCell id="IydracHSc55H5AG2ePdD-17" value="n.count(&#39;,&#39;)" style="text;html=1;strokeColor=none;fillColor=none;align=center;verticalAlign=middle;whiteSpace=wrap;rounded=0;" vertex="1" parent="1">
          <mxGeometry x="160" y="195" width="80" height="20" as="geometry" />
        </mxCell>
        <mxCell id="IydracHSc55H5AG2ePdD-18" value="Вывести &quot;Букв н нет &quot;" style="text;html=1;strokeColor=none;fillColor=none;align=center;verticalAlign=middle;whiteSpace=wrap;rounded=0;" vertex="1" parent="1">
          <mxGeometry x="277.5" y="450" width="90" height="20" as="geometry" />
        </mxCell>
        <mxCell id="IydracHSc55H5AG2ePdD-19" value="[ else ]" style="text;html=1;strokeColor=none;fillColor=none;align=center;verticalAlign=middle;whiteSpace=wrap;rounded=0;" vertex="1" parent="1">
          <mxGeometry x="230" y="260" width="40" height="20" as="geometry" />
        </mxCell>
        <mxCell id="IydracHSc55H5AG2ePdD-21" value="" style="endArrow=none;html=1;exitX=0.5;exitY=1;exitDx=0;exitDy=0;" edge="1" parent="1" source="IydracHSc55H5AG2ePdD-10">
          <mxGeometry width="50" height="50" relative="1" as="geometry">
            <mxPoint x="407.5" y="360" as="sourcePoint" />
            <mxPoint x="197.5" y="500" as="targetPoint" />
            <Array as="points" />
          </mxGeometry>
        </mxCell>
        <mxCell id="IydracHSc55H5AG2ePdD-22" value="" style="endArrow=none;html=1;" edge="1" parent="1">
          <mxGeometry width="50" height="50" relative="1" as="geometry">
            <mxPoint x="197.5" y="500" as="sourcePoint" />
            <mxPoint x="307.5" y="500" as="targetPoint" />
          </mxGeometry>
        </mxCell>
        <mxCell id="IydracHSc55H5AG2ePdD-30" value="" style="edgeStyle=orthogonalEdgeStyle;rounded=0;orthogonalLoop=1;jettySize=auto;html=1;" edge="1" parent="1" source="IydracHSc55H5AG2ePdD-24" target="IydracHSc55H5AG2ePdD-14">
          <mxGeometry relative="1" as="geometry" />
        </mxCell>
        <mxCell id="IydracHSc55H5AG2ePdD-24" value="&lt;div&gt;n.find(&#39;,&#39;)&lt;/div&gt;&lt;div&gt;n.count(&#39;n&#39;)&lt;br&gt;&lt;/div&gt;" style="ellipse;whiteSpace=wrap;html=1;" vertex="1" parent="1">
          <mxGeometry x="155" y="350" width="90" height="50" as="geometry" />
        </mxCell>
        <mxCell id="IydracHSc55H5AG2ePdD-31" value="[ commas &amp;gt; 0 ]" style="text;html=1;strokeColor=none;fillColor=none;align=center;verticalAlign=middle;whiteSpace=wrap;rounded=0;" vertex="1" parent="1">
          <mxGeometry x="110" y="300" width="90" height="20" as="geometry" />
        </mxCell>
      </root>
    </mxGraphModel>
  </diagram>
</mxfile>
